<svg width="281" height="59" viewBox="0 0 281 59" fill="none" xmlns="http://www.w3.org/2000/svg">
<path d="M20.28 57.288C16.536 57.288 13.176 56.424 10.2 54.696C7.224 52.92 4.872 50.52 3.144 47.496C1.416 44.472 0.528 41.064 0.48 37.272V4.44C0.48 3.336 0.816 2.448 1.488 1.776C2.208 1.104 3.096 0.767999 4.152 0.767999C5.256 0.767999 6.144 1.104 6.816 1.776C7.488 2.448 7.824 3.336 7.824 4.44V23.88C9.504 21.864 11.52 20.28 13.872 19.128C16.272 17.928 18.888 17.328 21.72 17.328C25.224 17.328 28.368 18.216 31.152 19.992C33.936 21.72 36.12 24.096 37.704 27.12C39.336 30.096 40.152 33.48 40.152 37.272C40.152 41.064 39.264 44.472 37.488 47.496C35.76 50.52 33.408 52.92 30.432 54.696C27.456 56.424 24.072 57.288 20.28 57.288ZM20.28 50.808C22.728 50.808 24.912 50.232 26.832 49.08C28.752 47.88 30.264 46.248 31.368 44.184C32.52 42.12 33.096 39.816 33.096 37.272C33.096 34.68 32.52 32.376 31.368 30.36C30.264 28.344 28.752 26.76 26.832 25.608C24.912 24.408 22.728 23.808 20.28 23.808C17.88 23.808 15.696 24.408 13.728 25.608C11.808 26.76 10.296 28.344 9.192 30.36C8.088 32.376 7.536 34.68 7.536 37.272C7.536 39.816 8.088 42.12 9.192 44.184C10.296 46.248 11.808 47.88 13.728 49.08C15.696 50.232 17.88 50.808 20.28 50.808ZM55.497 57C54.441 57 53.553 56.664 52.833 55.992C52.161 55.272 51.825 54.384 51.825 53.328V21.288C51.825 20.184 52.161 19.296 52.833 18.624C53.553 17.952 54.441 17.616 55.497 17.616C56.601 17.616 57.489 17.952 58.161 18.624C58.833 19.296 59.169 20.184 59.169 21.288V53.328C59.169 54.384 58.833 55.272 58.161 55.992C57.489 56.664 56.601 57 55.497 57ZM55.497 11.208C54.201 11.208 53.073 10.752 52.113 9.84C51.201 8.88 50.745 7.752 50.745 6.456C50.745 5.16 51.201 4.056 52.113 3.144C53.073 2.184 54.201 1.704 55.497 1.704C56.793 1.704 57.897 2.184 58.809 3.144C59.769 4.056 60.249 5.16 60.249 6.456C60.249 7.752 59.769 8.88 58.809 9.84C57.897 10.752 56.793 11.208 55.497 11.208ZM91.3356 57.288C87.3516 57.288 83.7996 56.448 80.6796 54.768C77.6076 53.04 75.1836 50.688 73.4076 47.712C71.6796 44.688 70.8156 41.232 70.8156 37.344C70.8156 33.408 71.6316 29.952 73.2636 26.976C74.9436 23.952 77.2476 21.6 80.1756 19.92C83.1036 18.192 86.4636 17.328 90.2556 17.328C93.9996 17.328 97.2156 18.168 99.9036 19.848C102.592 21.48 104.632 23.76 106.024 26.688C107.464 29.568 108.184 32.904 108.184 36.696C108.184 37.608 107.872 38.376 107.248 39C106.624 39.576 105.832 39.864 104.872 39.864H75.8556V34.104H104.656L101.704 36.12C101.656 33.72 101.176 31.584 100.264 29.712C99.3516 27.792 98.0556 26.28 96.3756 25.176C94.6956 24.072 92.6556 23.52 90.2556 23.52C87.5196 23.52 85.1676 24.12 83.1996 25.32C81.2796 26.52 79.8156 28.176 78.8076 30.288C77.7996 32.352 77.2956 34.704 77.2956 37.344C77.2956 39.984 77.8956 42.336 79.0956 44.4C80.2956 46.464 81.9516 48.096 84.0636 49.296C86.1756 50.496 88.5996 51.096 91.3356 51.096C92.8236 51.096 94.3356 50.832 95.8716 50.304C97.4556 49.728 98.7276 49.08 99.6876 48.36C100.408 47.832 101.176 47.568 101.992 47.568C102.856 47.52 103.6 47.76 104.224 48.288C105.04 49.008 105.472 49.8 105.52 50.664C105.568 51.528 105.184 52.272 104.368 52.896C102.736 54.192 100.696 55.248 98.2476 56.064C95.8476 56.88 93.5436 57.288 91.3356 57.288ZM150.814 57.072C149.758 57.072 148.87 56.736 148.15 56.064C147.478 55.344 147.142 54.456 147.142 53.4V35.688C147.142 32.952 146.638 30.72 145.63 28.992C144.622 27.264 143.254 25.992 141.526 25.176C139.846 24.312 137.902 23.88 135.694 23.88C133.678 23.88 131.854 24.288 130.222 25.104C128.59 25.92 127.294 27.024 126.334 28.416C125.374 29.76 124.894 31.32 124.894 33.096H120.358C120.358 30.072 121.078 27.384 122.518 25.032C124.006 22.632 126.022 20.736 128.566 19.344C131.11 17.952 133.966 17.256 137.134 17.256C140.446 17.256 143.398 17.976 145.99 19.416C148.63 20.808 150.694 22.872 152.182 25.608C153.718 28.344 154.486 31.704 154.486 35.688V53.4C154.486 54.456 154.126 55.344 153.406 56.064C152.734 56.736 151.87 57.072 150.814 57.072ZM121.222 57.072C120.166 57.072 119.278 56.736 118.558 56.064C117.886 55.344 117.55 54.456 117.55 53.4V21.288C117.55 20.184 117.886 19.296 118.558 18.624C119.278 17.952 120.166 17.616 121.222 17.616C122.326 17.616 123.214 17.952 123.886 18.624C124.558 19.296 124.894 20.184 124.894 21.288V53.4C124.894 54.456 124.558 55.344 123.886 56.064C123.214 56.736 122.326 57.072 121.222 57.072ZM180.956 57.288C177.596 57.288 174.476 56.784 171.596 55.776C168.764 54.72 166.556 53.4 164.972 51.816C164.252 51.048 163.94 50.184 164.036 49.224C164.18 48.216 164.66 47.4 165.476 46.776C166.436 46.008 167.372 45.696 168.284 45.84C169.244 45.936 170.06 46.344 170.732 47.064C171.548 47.976 172.844 48.84 174.62 49.656C176.444 50.424 178.46 50.808 180.668 50.808C183.452 50.808 185.564 50.352 187.004 49.44C188.492 48.528 189.26 47.352 189.308 45.912C189.356 44.472 188.66 43.224 187.22 42.168C185.828 41.112 183.26 40.248 179.516 39.576C174.668 38.616 171.14 37.176 168.932 35.256C166.772 33.336 165.692 30.984 165.692 28.2C165.692 25.752 166.412 23.736 167.852 22.152C169.292 20.52 171.14 19.32 173.396 18.552C175.652 17.736 178.004 17.328 180.452 17.328C183.62 17.328 186.428 17.832 188.876 18.84C191.324 19.848 193.268 21.24 194.708 23.016C195.38 23.784 195.692 24.6 195.644 25.464C195.596 26.28 195.188 26.976 194.42 27.552C193.652 28.08 192.74 28.248 191.684 28.056C190.628 27.864 189.74 27.432 189.02 26.76C187.82 25.608 186.524 24.816 185.132 24.384C183.74 23.952 182.132 23.736 180.308 23.736C178.196 23.736 176.396 24.096 174.908 24.816C173.468 25.536 172.748 26.592 172.748 27.984C172.748 28.848 172.964 29.64 173.396 30.36C173.876 31.032 174.788 31.656 176.132 32.232C177.476 32.76 179.444 33.288 182.036 33.816C185.636 34.536 188.468 35.448 190.532 36.552C192.644 37.656 194.156 38.952 195.068 40.44C195.98 41.88 196.436 43.56 196.436 45.48C196.436 47.688 195.836 49.68 194.636 51.456C193.484 53.232 191.756 54.648 189.452 55.704C187.196 56.76 184.364 57.288 180.956 57.288ZM207.81 58.152C206.466 58.152 205.29 57.672 204.282 56.712C203.322 55.704 202.842 54.528 202.842 53.184C202.842 51.792 203.322 50.616 204.282 49.656C205.29 48.648 206.466 48.144 207.81 48.144C209.202 48.144 210.378 48.648 211.338 49.656C212.298 50.616 212.778 51.792 212.778 53.184C212.778 54.528 212.298 55.704 211.338 56.712C210.378 57.672 209.202 58.152 207.81 58.152ZM239.294 57.288C235.79 57.288 232.646 56.424 229.862 54.696C227.078 52.92 224.87 50.544 223.238 47.568C221.654 44.544 220.862 41.136 220.862 37.344C220.862 33.552 221.726 30.144 223.454 27.12C225.23 24.096 227.606 21.72 230.582 19.992C233.606 18.216 236.99 17.328 240.734 17.328C244.478 17.328 247.838 18.216 250.814 19.992C253.79 21.72 256.142 24.096 257.87 27.12C259.646 30.144 260.534 33.552 260.534 37.344H257.726C257.726 41.136 256.91 44.544 255.278 47.568C253.694 50.544 251.51 52.92 248.726 54.696C245.942 56.424 242.798 57.288 239.294 57.288ZM240.734 50.808C243.182 50.808 245.366 50.232 247.286 49.08C249.206 47.88 250.718 46.272 251.822 44.256C252.926 42.192 253.478 39.888 253.478 37.344C253.478 34.752 252.926 32.448 251.822 30.432C250.718 28.368 249.206 26.76 247.286 25.608C245.366 24.408 243.182 23.808 240.734 23.808C238.334 23.808 236.15 24.408 234.182 25.608C232.262 26.76 230.726 28.368 229.574 30.432C228.47 32.448 227.918 34.752 227.918 37.344C227.918 39.888 228.47 42.192 229.574 44.256C230.726 46.272 232.262 47.88 234.182 49.08C236.15 50.232 238.334 50.808 240.734 50.808ZM256.862 57.072C255.806 57.072 254.918 56.736 254.198 56.064C253.526 55.344 253.19 54.456 253.19 53.4V42.384L254.558 34.752L260.534 37.344V53.4C260.534 54.456 260.174 55.344 259.454 56.064C258.782 56.736 257.918 57.072 256.862 57.072ZM275.856 57C274.8 57 273.912 56.664 273.192 55.992C272.52 55.272 272.184 54.384 272.184 53.328V21.288C272.184 20.184 272.52 19.296 273.192 18.624C273.912 17.952 274.8 17.616 275.856 17.616C276.96 17.616 277.848 17.952 278.52 18.624C279.192 19.296 279.528 20.184 279.528 21.288V53.328C279.528 54.384 279.192 55.272 278.52 55.992C277.848 56.664 276.96 57 275.856 57ZM275.856 11.208C274.56 11.208 273.432 10.752 272.472 9.84C271.56 8.88 271.104 7.752 271.104 6.456C271.104 5.16 271.56 4.056 272.472 3.144C273.432 2.184 274.56 1.704 275.856 1.704C277.152 1.704 278.256 2.184 279.168 3.144C280.128 4.056 280.608 5.16 280.608 6.456C280.608 7.752 280.128 8.88 279.168 9.84C278.256 10.752 277.152 11.208 275.856 11.208Z" fill="#00A2E8"/>
</svg>
